<svg id="svg" xmlns="http://www.w3.org/2000/svg" xmlns:xlink="http://www.w3.org/1999/xlink" width="400" height="76.80000000000001" viewBox="0, 0, 400,76.80000000000001"><g id="svgg"><path id="path0" d="M45.333 4.833 C 45.333 5.143,45.222 5.167,43.761 5.167 C 42.080 5.167,41.333 5.342,41.333 5.737 C 41.333 5.911,41.104 5.996,40.542 6.033 C 39.866 6.076,39.742 6.138,39.697 6.458 C 39.650 6.786,39.546 6.833,38.861 6.833 C 38.222 6.833,38.022 6.909,37.766 7.250 C 37.560 7.524,37.291 7.667,36.977 7.667 C 36.579 7.667,36.500 7.736,36.500 8.083 C 36.500 8.457,36.433 8.500,35.843 8.500 C 35.399 8.500,35.115 8.598,34.968 8.803 C 34.848 8.969,34.612 9.157,34.443 9.220 C 34.273 9.283,34.096 9.485,34.048 9.668 C 34.000 9.851,33.821 10.000,33.647 10.000 C 33.424 10.000,33.333 10.120,33.333 10.417 C 33.333 10.780,33.260 10.833,32.762 10.833 C 32.220 10.833,31.667 11.176,31.667 11.512 C 31.667 11.597,31.518 11.667,31.337 11.667 C 31.123 11.667,30.969 11.814,30.902 12.083 C 30.836 12.344,30.679 12.500,30.482 12.500 C 30.309 12.500,30.167 12.614,30.167 12.754 C 30.167 12.893,29.979 13.093,29.750 13.197 C 29.521 13.301,29.333 13.520,29.333 13.682 C 29.333 13.861,29.186 13.998,28.958 14.030 C 28.732 14.062,28.564 14.217,28.535 14.422 C 28.508 14.608,28.323 14.833,28.124 14.922 C 27.924 15.011,27.721 15.247,27.672 15.448 C 27.623 15.648,27.415 16.005,27.208 16.240 C 27.002 16.476,26.833 16.776,26.833 16.906 C 26.833 17.037,26.665 17.167,26.458 17.197 C 26.217 17.231,26.064 17.384,26.030 17.625 C 25.996 17.866,25.862 18.000,25.655 18.000 C 25.380 18.000,25.333 18.121,25.333 18.833 C 25.333 19.611,25.306 19.667,24.917 19.667 C 24.609 19.667,24.500 19.755,24.500 20.005 C 24.500 20.191,24.369 20.392,24.208 20.451 C 23.799 20.603,23.672 20.836,23.669 21.447 C 23.667 21.869,23.590 21.988,23.292 22.030 C 22.972 22.076,22.909 22.199,22.866 22.875 C 22.830 23.437,22.744 23.667,22.570 23.667 C 22.244 23.667,22.000 24.350,22.000 25.261 C 22.000 25.875,21.947 26.000,21.684 26.000 C 21.279 26.000,21.167 26.313,21.167 27.446 C 21.167 28.224,21.116 28.378,20.833 28.452 C 20.524 28.533,20.500 28.679,20.500 30.511 C 20.500 32.383,20.479 32.506,20.083 32.932 C 19.669 33.380,19.667 33.399,19.667 36.594 C 19.667 40.058,19.705 40.333,20.184 40.333 C 20.477 40.333,20.500 40.483,20.500 42.403 C 20.500 44.606,20.566 45.000,20.934 45.000 C 21.107 45.000,21.167 45.254,21.167 45.986 C 21.167 47.188,21.274 47.500,21.684 47.500 C 21.939 47.500,22.000 47.623,22.000 48.142 C 22.000 48.966,22.302 49.833,22.590 49.833 C 22.735 49.833,22.832 50.085,22.865 50.542 C 22.904 51.078,23.004 51.288,23.276 51.408 C 23.516 51.513,23.667 51.770,23.734 52.188 C 23.802 52.611,23.941 52.845,24.167 52.917 C 24.380 52.984,24.500 53.169,24.500 53.428 C 24.500 53.749,24.586 53.833,24.917 53.833 C 25.298 53.833,25.333 53.895,25.333 54.572 C 25.333 55.156,25.401 55.332,25.656 55.413 C 25.834 55.470,26.002 55.681,26.031 55.883 C 26.064 56.112,26.220 56.269,26.448 56.302 C 26.675 56.334,26.832 56.491,26.865 56.719 C 26.898 56.949,27.054 57.103,27.292 57.137 C 27.533 57.171,27.667 57.305,27.667 57.512 C 27.667 57.744,27.783 57.833,28.083 57.833 C 28.403 57.833,28.501 57.921,28.505 58.208 C 28.511 58.638,28.863 59.167,29.143 59.167 C 29.248 59.167,29.333 59.242,29.333 59.333 C 29.333 59.425,29.478 59.500,29.655 59.500 C 29.862 59.500,29.996 59.634,30.030 59.875 C 30.064 60.112,30.217 60.269,30.448 60.302 C 30.675 60.334,30.832 60.491,30.865 60.719 C 30.898 60.949,31.054 61.103,31.292 61.137 C 31.533 61.171,31.667 61.305,31.667 61.512 C 31.667 61.741,31.783 61.833,32.072 61.833 C 32.365 61.833,32.492 61.937,32.530 62.208 C 32.574 62.519,32.703 62.592,33.281 62.634 C 33.854 62.676,33.989 62.751,34.031 63.051 C 34.064 63.280,34.220 63.436,34.450 63.469 C 34.652 63.498,34.862 63.662,34.917 63.835 C 34.987 64.054,35.240 64.182,35.758 64.260 C 36.233 64.331,36.500 64.456,36.500 64.606 C 36.500 64.871,37.156 65.167,37.741 65.167 C 37.988 65.167,38.159 65.288,38.215 65.500 C 38.291 65.791,38.442 65.833,39.401 65.833 C 40.462 65.833,40.500 65.848,40.500 66.250 C 40.500 66.655,40.533 66.667,41.667 66.667 C 42.308 66.667,42.833 66.736,42.833 66.821 C 42.833 67.342,43.379 67.500,45.170 67.500 C 46.873 67.500,47.010 67.525,47.432 67.917 L 47.882 68.333 52.619 68.333 C 57.356 68.333,58.000 68.263,58.000 67.744 C 58.000 67.551,58.263 67.500,59.250 67.500 L 60.500 67.500 60.500 68.233 C 60.500 68.796,60.595 69.056,60.914 69.358 C 61.518 69.931,61.553 72.279,60.958 72.363 C 60.720 72.397,60.564 72.551,60.531 72.784 C 60.502 72.986,60.342 73.194,60.174 73.248 C 60.006 73.301,59.831 73.492,59.784 73.672 C 59.735 73.859,59.556 74.000,59.367 74.000 C 58.883 74.000,58.257 74.561,58.381 74.884 C 58.607 75.472,60.141 75.551,60.289 74.983 C 60.348 74.759,60.563 74.671,61.142 74.633 C 61.794 74.591,61.925 74.525,61.969 74.218 C 62.010 73.929,62.149 73.842,62.635 73.801 C 63.084 73.764,63.294 73.649,63.415 73.375 C 63.515 73.145,63.725 73.000,63.956 73.000 C 64.244 73.000,64.333 72.905,64.333 72.595 C 64.333 72.302,64.437 72.175,64.708 72.137 C 65.020 72.092,65.092 71.964,65.135 71.375 C 65.180 70.749,65.233 70.667,65.593 70.667 C 65.970 70.667,66.000 70.606,66.000 69.833 C 66.000 69.056,66.028 69.000,66.417 69.000 C 66.821 69.000,66.833 68.966,66.833 67.839 L 66.833 66.678 68.708 66.630 C 70.471 66.586,70.593 66.561,70.748 66.208 C 70.904 65.852,71.003 65.833,72.778 65.833 C 74.498 65.833,74.653 65.807,74.750 65.500 C 74.835 65.233,75.002 65.167,75.595 65.167 C 76.267 65.167,76.333 65.130,76.333 64.759 C 76.333 64.391,76.410 64.347,77.125 64.301 C 77.801 64.257,77.924 64.195,77.970 63.875 C 78.016 63.551,78.123 63.500,78.758 63.500 C 79.404 63.500,79.506 63.449,79.598 63.083 C 79.664 62.823,79.821 62.667,80.018 62.667 C 80.243 62.667,80.333 62.548,80.333 62.250 C 80.333 61.930,80.420 61.833,80.708 61.831 C 81.092 61.829,81.718 61.415,82.485 60.656 C 82.722 60.422,83.048 60.180,83.208 60.120 C 83.369 60.060,83.500 59.907,83.500 59.781 C 83.500 59.655,83.687 59.334,83.916 59.068 C 84.146 58.801,84.333 58.415,84.333 58.208 C 84.333 57.919,84.429 57.833,84.750 57.833 C 85.048 57.833,85.167 57.743,85.167 57.518 C 85.167 57.321,85.323 57.164,85.583 57.098 C 85.890 57.021,86.000 56.883,86.000 56.572 C 86.000 56.337,86.184 55.980,86.417 55.765 C 86.646 55.552,86.833 55.218,86.833 55.023 C 86.833 54.784,86.938 54.667,87.149 54.667 C 87.505 54.667,87.667 54.357,87.667 53.672 C 87.667 53.346,87.767 53.179,88.000 53.118 C 88.229 53.058,88.333 52.891,88.333 52.581 C 88.333 52.300,88.489 52.009,88.750 51.804 C 88.987 51.617,89.167 51.304,89.167 51.077 C 89.167 50.849,89.309 50.602,89.499 50.501 C 89.705 50.390,89.870 50.077,89.935 49.676 C 90.004 49.241,90.139 49.002,90.348 48.948 C 90.558 48.893,90.692 48.653,90.764 48.198 C 90.836 47.751,90.971 47.503,91.173 47.450 C 91.383 47.395,91.508 47.144,91.587 46.617 C 91.668 46.075,91.789 45.840,92.017 45.781 C 92.260 45.717,92.333 45.546,92.333 45.042 C 92.333 44.505,92.408 44.353,92.750 44.197 L 93.167 44.007 93.167 41.438 C 93.167 38.918,93.159 38.861,92.753 38.476 C 92.424 38.164,92.338 37.917,92.336 37.276 C 92.334 36.610,92.275 36.454,92.000 36.382 C 91.740 36.314,91.667 36.154,91.667 35.655 C 91.667 34.895,91.368 34.167,91.057 34.167 C 90.931 34.167,90.833 33.989,90.833 33.761 C 90.833 33.142,90.538 32.500,90.254 32.500 C 90.097 32.500,90.000 32.347,90.000 32.101 C 90.000 31.881,89.814 31.525,89.586 31.309 C 89.344 31.079,89.171 30.727,89.170 30.458 C 89.167 30.081,89.093 30.000,88.750 30.000 C 88.367 30.000,88.333 29.939,88.333 29.250 C 88.333 28.689,88.269 28.500,88.079 28.500 C 87.939 28.500,87.754 28.313,87.667 28.083 C 87.570 27.828,87.377 27.667,87.171 27.667 C 86.906 27.667,86.833 27.558,86.833 27.159 C 86.833 26.838,86.687 26.515,86.437 26.283 C 86.219 26.081,86.012 25.766,85.977 25.583 C 85.941 25.394,85.756 25.227,85.550 25.198 C 85.325 25.166,85.167 25.008,85.135 24.781 C 85.102 24.551,84.946 24.397,84.708 24.363 C 84.471 24.330,84.333 24.195,84.333 23.997 C 84.333 23.825,84.146 23.482,83.917 23.234 C 83.688 22.987,83.500 22.651,83.500 22.487 C 83.500 22.323,83.350 22.142,83.167 22.083 C 82.983 22.025,82.833 21.868,82.833 21.735 C 82.833 21.601,82.646 21.420,82.417 21.333 C 82.188 21.246,82.000 21.059,82.000 20.917 C 82.000 20.775,81.813 20.574,81.583 20.470 C 81.354 20.365,81.167 20.142,81.167 19.973 C 81.167 19.757,81.043 19.667,80.750 19.667 C 80.417 19.667,80.333 19.583,80.333 19.250 C 80.333 18.957,80.243 18.833,80.027 18.833 C 79.858 18.833,79.635 18.646,79.530 18.417 C 79.426 18.188,79.226 18.000,79.087 18.000 C 78.947 18.000,78.833 17.886,78.833 17.746 C 78.833 17.607,78.647 17.408,78.420 17.304 C 78.192 17.201,77.962 16.977,77.909 16.808 C 77.853 16.634,77.653 16.499,77.447 16.497 C 77.247 16.496,76.907 16.308,76.691 16.080 C 76.475 15.853,76.161 15.667,75.994 15.667 C 75.805 15.667,75.670 15.524,75.637 15.292 C 75.602 15.051,75.449 14.898,75.208 14.863 C 74.937 14.825,74.833 14.698,74.833 14.405 C 74.833 14.084,74.747 14.000,74.417 14.000 C 74.154 14.000,74.000 13.906,74.000 13.746 C 74.000 13.462,73.358 13.167,72.739 13.167 C 72.444 13.167,72.333 13.075,72.333 12.833 C 72.333 12.615,72.222 12.500,72.012 12.500 C 71.805 12.500,71.671 12.366,71.637 12.125 C 71.591 11.805,71.467 11.743,70.792 11.699 C 70.077 11.653,70.000 11.609,70.000 11.241 C 70.000 10.920,69.913 10.833,69.595 10.833 C 69.302 10.833,69.175 10.730,69.137 10.458 C 69.093 10.150,68.963 10.074,68.411 10.034 C 67.906 9.997,67.699 9.893,67.578 9.617 C 67.455 9.336,67.250 9.238,66.708 9.199 C 66.136 9.157,66.000 9.085,66.000 8.824 C 66.000 8.546,65.881 8.500,65.167 8.500 C 64.389 8.500,64.333 8.472,64.333 8.083 C 64.333 7.704,64.270 7.667,63.623 7.667 C 63.046 7.667,62.881 7.596,62.748 7.292 C 62.604 6.965,62.440 6.910,61.469 6.868 C 60.465 6.823,60.349 6.782,60.302 6.451 C 60.255 6.119,60.140 6.079,59.125 6.034 C 58.288 5.997,58.000 5.924,58.000 5.748 C 58.000 5.323,57.382 5.167,55.697 5.167 C 54.179 5.167,54.032 5.138,53.952 4.833 C 53.815 4.311,45.333 4.311,45.333 4.833 M99.667 9.162 C 99.667 10.621,99.678 10.663,100.083 10.765 C 100.449 10.857,100.500 10.960,100.500 11.601 C 100.500 12.271,100.535 12.333,100.917 12.333 C 101.322 12.333,101.333 12.366,101.333 13.516 C 101.333 14.558,101.373 14.708,101.667 14.785 C 101.947 14.858,102.000 15.012,102.000 15.756 C 102.000 16.848,102.115 17.167,102.509 17.167 C 102.756 17.167,102.825 17.319,102.866 17.958 C 102.909 18.629,102.973 18.758,103.284 18.802 C 103.616 18.849,103.657 18.965,103.701 19.969 C 103.745 20.973,103.786 21.088,104.118 21.136 C 104.449 21.183,104.490 21.298,104.534 22.302 C 104.579 23.314,104.618 23.422,104.958 23.470 C 105.289 23.517,105.333 23.620,105.333 24.345 C 105.333 25.049,105.380 25.167,105.659 25.167 C 105.945 25.167,105.991 25.303,106.034 26.292 C 106.079 27.307,106.119 27.422,106.451 27.469 C 106.782 27.516,106.823 27.631,106.868 28.636 C 106.912 29.647,106.951 29.755,107.292 29.803 C 107.623 29.850,107.667 29.953,107.667 30.678 C 107.667 31.440,107.697 31.500,108.076 31.500 C 108.469 31.500,108.487 31.550,108.534 32.708 C 108.579 33.817,108.614 33.921,108.958 33.970 C 109.302 34.019,109.333 34.111,109.333 35.084 C 109.333 35.988,109.381 36.159,109.658 36.247 C 109.908 36.327,109.994 36.530,110.033 37.133 C 110.076 37.795,110.140 37.925,110.451 37.969 C 110.782 38.016,110.823 38.131,110.868 39.136 C 110.912 40.147,110.951 40.255,111.292 40.303 C 111.627 40.351,111.667 40.450,111.667 41.248 C 111.667 42.354,111.781 42.667,112.184 42.667 C 112.491 42.667,112.500 43.026,112.500 55.833 L 112.500 69.000 120.417 69.000 L 128.333 69.000 128.333 55.512 L 128.333 42.023 128.708 41.970 C 129.052 41.921,129.087 41.817,129.132 40.708 C 129.179 39.550,129.198 39.500,129.591 39.500 C 129.970 39.500,130.000 39.440,130.000 38.678 C 130.000 37.953,130.044 37.850,130.375 37.803 C 130.715 37.755,130.755 37.647,130.799 36.636 C 130.843 35.631,130.884 35.516,131.216 35.469 C 131.547 35.422,131.588 35.307,131.633 34.292 C 131.676 33.303,131.721 33.167,132.008 33.167 C 132.287 33.167,132.333 33.049,132.333 32.345 C 132.333 31.620,132.377 31.517,132.708 31.470 C 133.049 31.422,133.088 31.314,133.132 30.302 C 133.177 29.298,133.218 29.183,133.549 29.136 C 133.880 29.088,133.922 28.973,133.966 27.969 C 134.010 26.965,134.051 26.849,134.382 26.802 C 134.692 26.758,134.758 26.629,134.800 25.976 C 134.838 25.397,134.926 25.181,135.150 25.123 C 135.464 25.041,135.667 24.371,135.667 23.415 C 135.667 23.012,135.753 22.850,136.000 22.785 C 136.294 22.708,136.333 22.558,136.333 21.516 C 136.333 20.366,136.345 20.333,136.750 20.333 C 137.133 20.333,137.167 20.272,137.167 19.579 C 137.167 18.928,137.224 18.803,137.583 18.667 C 137.969 18.520,138.000 18.427,138.000 17.421 C 138.000 16.372,138.015 16.333,138.417 16.333 C 138.821 16.333,138.833 16.299,138.833 15.178 C 138.833 14.107,138.861 14.019,139.208 13.970 C 139.527 13.925,139.591 13.800,139.633 13.142 C 139.672 12.539,139.755 12.349,140.008 12.283 C 140.289 12.210,140.333 12.048,140.333 11.111 C 140.333 10.110,140.363 10.019,140.708 9.970 C 141.049 9.922,141.088 9.814,141.133 8.792 L 141.182 7.667 133.258 7.667 L 125.333 7.667 125.333 8.417 C 125.333 9.106,125.299 9.167,124.917 9.167 C 124.529 9.167,124.500 9.223,124.500 9.988 C 124.500 10.714,124.456 10.816,124.125 10.863 C 123.785 10.912,123.745 11.020,123.701 12.031 C 123.657 13.035,123.616 13.151,123.284 13.198 C 122.973 13.242,122.909 13.371,122.866 14.042 C 122.825 14.681,122.756 14.833,122.509 14.833 C 122.113 14.833,122.000 15.152,122.000 16.264 C 122.000 17.056,121.959 17.167,121.667 17.167 C 121.378 17.167,121.333 17.278,121.333 17.988 C 121.333 18.714,121.289 18.816,120.958 18.863 C 120.621 18.911,120.574 19.035,120.488 20.083 C 120.409 21.050,120.387 21.114,120.363 20.458 C 120.338 19.788,120.282 19.667,120.000 19.667 C 119.724 19.667,119.667 19.556,119.667 19.021 C 119.667 17.905,119.490 17.333,119.146 17.333 C 118.882 17.333,118.833 17.204,118.833 16.500 C 118.833 15.722,118.806 15.667,118.417 15.667 C 118.015 15.667,118.000 15.628,118.000 14.579 C 118.000 13.573,117.969 13.480,117.583 13.333 C 117.224 13.197,117.167 13.072,117.167 12.421 C 117.167 11.728,117.133 11.667,116.750 11.667 C 116.345 11.667,116.333 11.633,116.333 10.500 C 116.333 9.455,116.299 9.333,116.009 9.333 C 115.741 9.333,115.676 9.197,115.634 8.542 L 115.583 7.750 107.625 7.707 L 99.667 7.663 99.667 9.162 M142.833 34.750 L 142.833 61.833 143.250 61.833 C 143.655 61.833,143.667 61.867,143.667 62.997 C 143.667 64.092,143.691 64.166,144.075 64.263 C 144.414 64.348,144.491 64.482,144.533 65.058 C 144.575 65.630,144.648 65.759,144.958 65.803 C 145.230 65.842,145.333 65.968,145.333 66.262 C 145.333 66.548,145.426 66.667,145.649 66.667 C 145.846 66.667,146.003 66.823,146.068 67.083 C 146.160 67.449,146.263 67.500,146.908 67.500 C 147.544 67.500,147.651 67.551,147.697 67.875 C 147.742 68.195,147.866 68.257,148.542 68.301 C 149.197 68.343,149.333 68.407,149.333 68.676 C 149.333 68.994,149.552 69.000,160.833 69.000 C 172.114 69.000,172.333 68.994,172.333 68.676 C 172.333 68.407,172.469 68.343,173.125 68.301 C 173.801 68.257,173.924 68.195,173.970 67.875 C 174.016 67.551,174.123 67.500,174.758 67.500 C 175.404 67.500,175.506 67.449,175.598 67.083 C 175.664 66.823,175.821 66.667,176.018 66.667 C 176.241 66.667,176.333 66.548,176.333 66.262 C 176.333 65.968,176.437 65.842,176.708 65.803 C 177.018 65.759,177.092 65.630,177.134 65.058 C 177.176 64.482,177.253 64.348,177.592 64.263 C 177.976 64.166,178.000 64.092,178.000 62.997 C 178.000 61.867,178.012 61.833,178.417 61.833 L 178.833 61.833 178.833 34.750 L 178.833 7.667 170.833 7.667 L 162.833 7.667 162.833 30.833 L 162.833 54.000 160.833 54.000 L 158.833 54.000 158.833 30.833 L 158.833 7.667 150.833 7.667 L 142.833 7.667 142.833 34.750 M180.500 38.333 L 180.500 69.000 188.417 69.000 L 196.333 69.000 196.364 59.375 C 196.381 54.081,196.423 50.144,196.456 50.625 C 196.512 51.426,196.552 51.500,196.925 51.500 C 197.319 51.500,197.333 51.540,197.333 52.667 C 197.333 53.722,197.365 53.833,197.667 53.833 C 197.943 53.833,198.000 53.944,198.000 54.479 C 198.000 55.545,198.191 56.204,198.525 56.292 C 198.766 56.355,198.833 56.532,198.833 57.103 C 198.833 57.771,198.869 57.833,199.250 57.833 C 199.655 57.833,199.667 57.867,199.667 58.997 C 199.667 60.093,199.690 60.166,200.076 60.263 C 200.453 60.358,200.489 60.454,200.534 61.475 C 200.579 62.480,200.618 62.588,200.958 62.637 C 201.289 62.684,201.333 62.786,201.333 63.512 C 201.333 64.222,201.378 64.333,201.667 64.333 C 201.959 64.333,202.000 64.444,202.000 65.236 C 202.000 66.354,202.113 66.667,202.518 66.667 C 202.789 66.667,202.833 66.795,202.833 67.570 C 202.833 69.137,202.179 69.000,209.684 69.000 L 216.333 69.000 216.333 38.333 L 216.333 7.667 208.417 7.667 L 200.500 7.667 200.467 17.708 C 200.449 23.231,200.408 27.210,200.376 26.551 C 200.328 25.535,200.269 25.335,199.993 25.248 C 199.735 25.166,199.667 24.993,199.667 24.416 C 199.667 23.516,199.421 22.833,199.097 22.833 C 198.923 22.833,198.837 22.604,198.801 22.042 C 198.758 21.371,198.694 21.242,198.382 21.198 C 198.051 21.151,198.010 21.035,197.966 20.031 C 197.922 19.027,197.880 18.912,197.549 18.864 C 197.218 18.817,197.177 18.702,197.132 17.698 C 197.088 16.686,197.049 16.578,196.708 16.530 C 196.377 16.483,196.333 16.380,196.333 15.655 C 196.333 14.944,196.288 14.833,196.000 14.833 C 195.708 14.833,195.667 14.722,195.667 13.930 C 195.667 12.818,195.553 12.500,195.156 12.500 C 194.892 12.500,194.842 12.340,194.799 11.375 C 194.756 10.393,194.702 10.229,194.375 10.085 C 194.070 9.952,194.000 9.787,194.000 9.210 C 194.000 8.564,193.963 8.500,193.583 8.500 C 193.250 8.500,193.167 8.417,193.167 8.083 L 193.167 7.667 186.833 7.667 L 180.500 7.667 180.500 38.333 M225.333 8.083 C 225.333 8.485,225.294 8.500,224.259 8.500 C 223.397 8.500,223.142 8.562,222.966 8.813 C 222.845 8.986,222.597 9.155,222.415 9.190 C 222.224 9.227,222.061 9.412,222.030 9.627 C 221.996 9.866,221.861 10.000,221.655 10.000 C 221.423 10.000,221.333 10.116,221.333 10.417 C 221.333 10.750,221.250 10.833,220.917 10.833 C 220.583 10.833,220.500 10.917,220.500 11.250 C 220.500 11.583,220.417 11.667,220.083 11.667 C 219.750 11.667,219.667 11.750,219.667 12.083 C 219.667 12.381,219.577 12.500,219.351 12.500 C 218.947 12.500,218.833 12.813,218.833 13.930 C 218.833 14.719,218.792 14.833,218.503 14.833 C 217.981 14.833,217.990 14.401,218.038 38.667 L 218.083 61.750 218.458 61.803 C 218.806 61.853,218.833 61.941,218.833 63.008 C 218.833 64.098,218.856 64.166,219.250 64.265 C 219.571 64.345,219.667 64.477,219.667 64.838 C 219.667 65.523,219.828 65.833,220.184 65.833 C 220.410 65.833,220.500 65.952,220.500 66.250 C 220.500 66.583,220.583 66.667,220.917 66.667 C 221.250 66.667,221.333 66.750,221.333 67.083 C 221.333 67.465,221.395 67.500,222.072 67.500 C 222.711 67.500,222.817 67.551,222.863 67.875 C 222.909 68.195,223.033 68.257,223.708 68.301 C 224.364 68.343,224.500 68.407,224.500 68.676 C 224.500 69.194,247.483 69.185,247.618 68.667 C 247.689 68.397,247.846 68.333,248.436 68.333 C 249.100 68.333,249.167 68.296,249.167 67.926 C 249.167 67.558,249.244 67.513,249.958 67.467 C 250.627 67.425,250.758 67.360,250.802 67.052 C 250.834 66.825,250.991 66.668,251.219 66.635 C 251.443 66.603,251.603 66.446,251.634 66.225 C 251.662 66.028,251.831 65.829,252.009 65.783 C 252.262 65.717,252.333 65.551,252.333 65.034 C 252.333 64.464,252.393 64.355,252.750 64.265 C 253.145 64.166,253.167 64.099,253.167 62.997 C 253.167 61.866,253.179 61.833,253.584 61.833 L 254.001 61.833 253.959 38.458 L 253.917 15.083 253.548 14.922 C 253.231 14.782,253.174 14.610,253.132 13.672 C 253.088 12.687,253.048 12.578,252.708 12.530 C 252.437 12.492,252.333 12.365,252.333 12.072 C 252.333 11.778,252.242 11.667,252.000 11.667 C 251.756 11.667,251.667 11.556,251.667 11.250 C 251.667 10.917,251.583 10.833,251.250 10.833 C 250.917 10.833,250.833 10.750,250.833 10.417 C 250.833 10.087,250.749 10.000,250.428 10.000 C 250.135 10.000,250.008 9.896,249.970 9.625 C 249.937 9.390,249.783 9.231,249.559 9.199 C 249.362 9.171,249.163 9.002,249.116 8.824 C 249.043 8.544,248.880 8.500,247.932 8.500 C 246.871 8.500,246.833 8.486,246.833 8.083 L 246.833 7.667 236.083 7.667 L 225.333 7.667 225.333 8.083 M263.035 7.865 C 262.924 7.976,262.833 8.164,262.833 8.283 C 262.833 8.429,262.588 8.500,262.083 8.500 C 261.444 8.500,261.333 8.549,261.333 8.833 C 261.333 9.075,261.222 9.167,260.928 9.167 C 260.325 9.167,259.667 9.459,259.667 9.726 C 259.667 9.856,259.511 10.002,259.321 10.052 C 259.131 10.101,258.935 10.297,258.885 10.488 C 258.835 10.678,258.689 10.833,258.560 10.833 C 258.292 10.833,258.000 11.492,258.000 12.094 C 258.000 12.389,257.909 12.500,257.667 12.500 C 257.383 12.500,257.333 12.611,257.333 13.250 C 257.333 13.939,257.299 14.000,256.917 14.000 C 256.509 14.000,256.500 14.028,256.500 15.250 C 256.500 16.365,256.466 16.500,256.184 16.500 C 255.679 16.500,255.667 16.684,255.667 24.000 C 255.667 31.298,255.680 31.500,256.177 31.500 C 256.444 31.500,256.492 31.662,256.534 32.708 C 256.579 33.817,256.614 33.921,256.958 33.970 C 257.302 34.019,257.333 34.111,257.333 35.084 C 257.333 35.986,257.381 36.159,257.656 36.247 C 257.834 36.303,258.002 36.514,258.031 36.716 C 258.064 36.946,258.220 37.103,258.449 37.135 C 258.738 37.177,258.825 37.316,258.866 37.802 C 258.902 38.246,259.018 38.461,259.283 38.577 C 259.484 38.666,259.691 38.909,259.744 39.119 C 259.798 39.334,259.967 39.500,260.130 39.500 C 260.290 39.500,260.495 39.669,260.585 39.875 C 260.706 40.149,260.916 40.264,261.365 40.301 C 261.851 40.342,261.990 40.429,262.031 40.718 C 262.064 40.946,262.221 41.103,262.448 41.135 C 262.675 41.168,262.832 41.325,262.865 41.552 C 262.897 41.780,263.054 41.936,263.284 41.969 C 263.486 41.998,263.697 42.166,263.753 42.344 C 263.834 42.599,264.010 42.667,264.595 42.667 C 265.271 42.667,265.333 42.702,265.333 43.083 C 265.333 43.465,265.395 43.500,266.072 43.500 C 266.711 43.500,266.817 43.551,266.863 43.875 C 266.912 44.219,267.017 44.254,268.114 44.299 C 269.205 44.343,269.317 44.380,269.364 44.715 C 269.412 45.047,269.526 45.088,270.542 45.133 C 271.507 45.175,271.667 45.226,271.667 45.490 C 271.667 45.853,271.982 46.000,272.764 46.000 C 273.222 46.000,273.333 46.065,273.333 46.333 C 273.333 46.552,273.444 46.667,273.655 46.667 C 273.862 46.667,273.996 46.801,274.030 47.042 C 274.064 47.283,274.217 47.436,274.458 47.470 C 274.783 47.516,274.833 47.623,274.833 48.258 C 274.833 48.904,274.884 49.006,275.250 49.098 L 275.667 49.203 275.667 51.601 L 275.667 54.000 273.667 54.000 L 271.667 54.000 271.667 50.937 C 271.667 48.553,271.616 47.832,271.439 47.685 C 271.275 47.549,269.050 47.509,263.481 47.540 L 255.750 47.583 255.706 53.871 L 255.663 60.159 256.081 60.264 C 256.478 60.364,256.500 60.430,256.500 61.518 C 256.500 62.632,256.513 62.667,256.917 62.667 C 257.306 62.667,257.333 62.722,257.333 63.500 C 257.333 64.214,257.380 64.333,257.657 64.333 C 257.919 64.333,257.991 64.469,258.032 65.042 C 258.075 65.631,258.147 65.759,258.458 65.803 C 258.730 65.842,258.833 65.968,258.833 66.262 C 258.833 66.579,258.921 66.667,259.238 66.667 C 259.532 66.667,259.658 66.770,259.697 67.042 C 259.731 67.283,259.884 67.436,260.125 67.470 C 260.331 67.499,260.500 67.632,260.500 67.766 C 260.500 68.040,261.152 68.333,261.761 68.333 C 262.056 68.333,262.167 68.425,262.167 68.667 C 262.167 69.178,284.980 69.195,285.114 68.683 C 285.174 68.455,285.408 68.335,285.951 68.254 C 286.497 68.172,286.728 68.052,286.788 67.820 C 286.835 67.644,287.012 67.500,287.183 67.500 C 287.375 67.500,287.533 67.341,287.598 67.083 C 287.664 66.823,287.821 66.667,288.018 66.667 C 288.243 66.667,288.333 66.548,288.333 66.250 C 288.333 65.917,288.417 65.833,288.750 65.833 C 289.132 65.833,289.167 65.771,289.167 65.095 C 289.167 64.456,289.217 64.349,289.542 64.303 C 289.862 64.258,289.924 64.134,289.967 63.458 C 290.013 62.744,290.058 62.667,290.426 62.667 C 290.818 62.667,290.833 62.624,290.833 61.540 C 290.833 60.530,290.873 60.395,291.208 60.248 L 291.583 60.083 291.583 53.083 L 291.583 46.083 291.214 46.031 C 290.868 45.982,290.843 45.884,290.798 44.448 C 290.753 43.004,290.729 42.914,290.375 42.863 C 290.044 42.816,290.000 42.714,290.000 41.988 C 290.000 41.228,289.970 41.167,289.592 41.167 C 289.225 41.167,289.180 41.090,289.134 40.375 C 289.091 39.699,289.028 39.576,288.708 39.530 C 288.467 39.496,288.333 39.362,288.333 39.155 C 288.333 38.944,288.218 38.833,288.000 38.833 C 287.756 38.833,287.667 38.722,287.667 38.417 C 287.667 38.083,287.583 38.000,287.250 38.000 C 286.917 38.000,286.833 37.917,286.833 37.583 C 286.833 37.253,286.749 37.167,286.428 37.167 C 286.135 37.167,286.008 37.063,285.970 36.792 C 285.936 36.551,285.783 36.398,285.542 36.363 C 285.301 36.329,285.167 36.195,285.167 35.988 C 285.167 35.759,285.051 35.667,284.762 35.667 C 284.468 35.667,284.342 35.563,284.303 35.292 C 284.259 34.980,284.131 34.908,283.542 34.865 C 282.916 34.820,282.833 34.767,282.833 34.407 C 282.833 34.030,282.773 34.000,282.000 34.000 C 281.222 34.000,281.167 33.972,281.167 33.583 C 281.167 33.204,281.103 33.167,280.456 33.167 C 279.879 33.167,279.715 33.096,279.581 32.792 C 279.438 32.465,279.273 32.410,278.309 32.368 C 277.373 32.326,277.189 32.268,277.116 31.993 C 277.043 31.711,276.883 31.667,275.932 31.667 C 274.871 31.667,274.833 31.652,274.833 31.250 C 274.833 30.922,274.749 30.833,274.436 30.833 C 274.174 30.833,274.008 30.715,273.948 30.488 C 273.899 30.297,273.709 30.103,273.528 30.056 C 273.346 30.008,273.159 29.821,273.111 29.639 C 273.064 29.457,272.869 29.268,272.679 29.218 C 272.451 29.159,272.333 28.992,272.333 28.731 C 272.333 28.444,272.240 28.333,272.000 28.333 C 271.682 28.333,271.667 28.222,271.667 25.917 L 271.667 23.500 273.667 23.500 L 275.667 23.500 275.667 26.335 L 275.667 29.170 283.625 29.127 L 291.583 29.083 291.583 23.167 L 291.583 17.250 291.214 17.198 C 290.868 17.148,290.843 17.050,290.798 15.614 C 290.753 14.170,290.729 14.080,290.375 14.030 C 290.051 13.984,290.000 13.877,290.000 13.238 C 290.000 12.562,289.965 12.500,289.583 12.500 C 289.201 12.500,289.167 12.439,289.167 11.753 C 289.167 11.096,289.117 10.994,288.750 10.902 C 288.491 10.837,288.333 10.679,288.333 10.485 C 288.333 10.291,288.176 10.133,287.917 10.068 C 287.662 10.005,287.500 9.845,287.500 9.659 C 287.500 9.425,287.325 9.327,286.750 9.241 C 286.166 9.154,286.000 9.059,286.000 8.814 C 286.000 8.549,285.872 8.500,285.178 8.500 C 284.453 8.500,284.350 8.456,284.303 8.125 L 284.250 7.750 273.743 7.707 C 265.709 7.674,263.188 7.712,263.035 7.865 M293.333 38.333 L 293.333 69.000 308.500 69.000 L 323.667 69.000 323.667 61.500 L 323.667 54.000 316.417 54.000 L 309.167 54.000 309.167 50.333 L 309.167 46.667 314.750 46.667 L 320.333 46.667 320.333 38.750 L 320.333 30.833 314.750 30.833 L 309.167 30.833 309.167 27.167 L 309.167 23.500 316.316 23.500 C 322.681 23.500,323.475 23.471,323.566 23.236 C 323.621 23.091,323.667 19.529,323.667 15.320 L 323.667 7.667 308.500 7.667 L 293.333 7.667 293.333 38.333 M332.500 8.083 C 332.500 8.486,332.462 8.500,331.401 8.500 C 330.442 8.500,330.291 8.543,330.215 8.833 C 330.159 9.049,329.988 9.167,329.731 9.167 C 329.418 9.167,329.333 9.255,329.333 9.583 C 329.333 9.917,329.250 10.000,328.917 10.000 C 328.583 10.000,328.500 10.083,328.500 10.417 C 328.500 10.750,328.417 10.833,328.083 10.833 C 327.750 10.833,327.667 10.917,327.667 11.250 C 327.667 11.583,327.583 11.667,327.250 11.667 C 326.917 11.667,326.833 11.750,326.833 12.083 C 326.833 12.380,326.743 12.500,326.521 12.500 C 326.176 12.500,326.000 13.072,326.000 14.188 C 326.000 14.722,325.943 14.833,325.667 14.833 C 325.335 14.833,325.333 14.944,325.333 38.333 C 325.333 61.539,325.337 61.833,325.659 61.833 C 325.945 61.833,325.991 61.970,326.034 62.958 C 326.077 63.933,326.132 64.105,326.450 64.244 C 326.711 64.359,326.832 64.576,326.867 64.994 C 326.903 65.417,327.022 65.630,327.292 65.748 C 327.522 65.849,327.667 66.058,327.667 66.290 C 327.667 66.578,327.762 66.667,328.072 66.667 C 328.365 66.667,328.492 66.770,328.530 67.042 C 328.574 67.352,328.703 67.425,329.281 67.467 C 329.854 67.509,329.989 67.584,330.031 67.884 C 330.075 68.193,330.206 68.258,330.875 68.301 C 331.531 68.343,331.667 68.407,331.667 68.676 C 331.667 68.994,331.887 69.000,343.250 69.000 C 354.722 69.000,354.833 68.997,354.833 68.667 C 354.833 68.383,354.944 68.333,355.583 68.333 C 356.268 68.333,356.333 68.298,356.333 67.926 C 356.333 67.558,356.410 67.513,357.125 67.467 C 357.801 67.424,357.924 67.362,357.970 67.042 C 358.008 66.770,358.135 66.667,358.428 66.667 C 358.744 66.667,358.833 66.579,358.833 66.269 C 358.833 66.014,358.951 65.841,359.162 65.786 C 359.395 65.725,359.522 65.503,359.599 65.022 C 359.672 64.565,359.810 64.310,360.021 64.243 C 360.287 64.159,360.333 63.973,360.333 62.989 C 360.333 61.866,360.345 61.833,360.752 61.833 L 361.170 61.833 361.127 54.708 L 361.083 47.583 353.583 47.537 C 349.458 47.512,345.915 47.532,345.708 47.582 C 345.336 47.672,345.333 47.694,345.333 50.837 L 345.333 54.000 343.250 54.000 L 341.167 54.000 341.167 38.750 L 341.167 23.500 343.250 23.500 L 345.333 23.500 345.333 26.333 L 345.333 29.167 353.250 29.167 L 361.167 29.167 361.167 22.087 L 361.167 15.006 360.750 14.902 C 360.356 14.803,360.333 14.735,360.333 13.649 C 360.333 12.611,360.301 12.500,360.000 12.500 C 359.756 12.500,359.667 12.389,359.667 12.083 C 359.667 11.750,359.583 11.667,359.250 11.667 C 358.917 11.667,358.833 11.583,358.833 11.250 C 358.833 10.917,358.750 10.833,358.417 10.833 C 358.083 10.833,358.000 10.750,358.000 10.417 C 358.000 10.083,357.917 10.000,357.583 10.000 C 357.250 10.000,357.167 9.917,357.167 9.583 C 357.167 9.255,357.082 9.167,356.769 9.167 C 356.512 9.167,356.341 9.049,356.285 8.833 C 356.209 8.543,356.058 8.500,355.099 8.500 C 354.038 8.500,354.000 8.486,354.000 8.083 L 354.000 7.667 343.250 7.667 L 332.500 7.667 332.500 8.083 M51.333 18.749 C 51.471 18.864,51.865 19.048,52.208 19.159 C 52.552 19.269,52.833 19.431,52.833 19.518 C 52.833 19.606,52.965 19.725,53.125 19.784 C 54.102 20.143,57.531 23.340,58.541 24.833 C 58.696 25.063,59.048 25.568,59.323 25.957 C 59.598 26.346,59.948 26.908,60.102 27.207 C 60.255 27.506,60.431 27.787,60.493 27.833 C 60.682 27.972,61.624 30.095,61.748 30.660 C 61.812 30.951,61.970 31.390,62.098 31.636 C 62.875 33.125,62.210 36.714,61.020 37.462 C 60.780 37.612,60.358 37.907,60.083 38.116 C 59.808 38.326,59.405 38.629,59.187 38.790 C 55.942 41.187,54.930 43.047,56.273 44.141 C 57.327 44.999,59.741 46.891,60.260 47.266 C 61.022 47.816,60.681 48.295,58.916 49.158 C 56.852 50.166,56.399 50.010,54.833 47.753 C 54.604 47.423,54.229 46.906,54.000 46.604 C 53.771 46.301,53.453 45.873,53.293 45.652 C 51.792 43.571,51.105 42.633,50.586 41.960 C 49.736 40.855,49.809 40.362,50.870 40.054 C 51.303 39.929,51.858 39.640,52.103 39.413 C 52.348 39.186,52.613 39.000,52.691 39.000 C 52.769 39.000,52.833 38.896,52.833 38.768 C 52.833 38.640,52.937 38.496,53.064 38.447 C 53.600 38.241,55.065 34.820,55.037 33.839 C 55.005 32.726,52.534 29.069,50.963 27.810 C 48.237 25.624,45.412 25.006,44.778 26.455 C 44.627 26.801,44.279 27.421,44.005 27.833 C 43.731 28.246,43.425 28.771,43.325 29.000 C 43.225 29.229,43.033 29.539,42.897 29.688 C 42.654 29.957,43.179 31.980,43.644 32.563 C 43.726 32.666,43.847 32.938,43.913 33.167 C 44.049 33.637,44.676 35.033,45.269 36.191 C 46.149 37.906,45.897 38.099,41.890 38.777 C 41.132 38.905,41.036 38.613,40.833 35.561 C 40.737 34.107,40.585 32.467,40.497 31.917 C 40.108 29.498,40.503 25.431,41.306 23.583 C 41.986 22.019,43.894 19.833,44.579 19.833 C 44.696 19.833,44.880 19.727,44.988 19.598 C 45.095 19.469,45.573 19.273,46.050 19.163 C 46.527 19.053,47.078 18.862,47.274 18.739 C 47.919 18.335,50.846 18.343,51.333 18.749 M238.000 38.750 L 238.000 54.000 236.000 54.000 L 234.000 54.000 234.000 38.750 L 234.000 23.500 236.000 23.500 L 238.000 23.500 238.000 38.750 M64.586 54.561 C 65.983 57.353,65.929 57.109,65.282 57.720 C 63.863 59.059,62.463 59.496,61.647 58.854 C 61.429 58.682,60.979 58.401,60.647 58.229 C 58.246 56.985,57.900 56.638,58.153 55.726 C 58.251 55.372,58.332 54.819,58.332 54.496 C 58.333 54.038,58.472 53.771,58.958 53.290 C 60.288 51.978,60.150 52.013,62.063 52.485 L 63.756 52.902 64.586 54.561 " stroke="none" fill="#fbfbfb" fill-rule="evenodd"></path><path id="path1" d="M48.857 18.466 C 48.183 18.493,47.471 18.616,47.274 18.739 C 47.078 18.862,46.527 19.053,46.050 19.163 C 45.573 19.273,45.095 19.469,44.988 19.598 C 44.880 19.727,44.696 19.833,44.579 19.833 C 43.894 19.833,41.986 22.019,41.306 23.583 C 40.503 25.431,40.108 29.498,40.497 31.917 C 40.585 32.467,40.737 34.107,40.833 35.561 C 41.036 38.613,41.132 38.905,41.890 38.777 C 45.897 38.099,46.149 37.906,45.269 36.191 C 44.676 35.033,44.049 33.637,43.913 33.167 C 43.847 32.938,43.726 32.666,43.644 32.563 C 43.179 31.980,42.654 29.957,42.897 29.688 C 43.033 29.539,43.225 29.229,43.325 29.000 C 43.425 28.771,43.731 28.246,44.005 27.833 C 44.279 27.421,44.627 26.801,44.778 26.455 C 45.412 25.006,48.237 25.624,50.963 27.810 C 52.534 29.069,55.005 32.726,55.037 33.839 C 55.065 34.820,53.600 38.241,53.064 38.447 C 52.937 38.496,52.833 38.640,52.833 38.768 C 52.833 38.896,52.769 39.000,52.691 39.000 C 52.613 39.000,52.348 39.186,52.103 39.413 C 51.858 39.640,51.303 39.929,50.870 40.054 C 49.809 40.362,49.736 40.855,50.586 41.960 C 51.105 42.633,51.792 43.571,53.293 45.652 C 53.453 45.873,53.771 46.301,54.000 46.604 C 54.229 46.906,54.604 47.423,54.833 47.753 C 56.399 50.010,56.852 50.166,58.916 49.158 C 60.681 48.295,61.022 47.816,60.260 47.266 C 59.741 46.891,57.327 44.999,56.273 44.141 C 54.930 43.047,55.942 41.187,59.187 38.790 C 59.405 38.629,59.808 38.326,60.083 38.116 C 60.358 37.907,60.780 37.612,61.020 37.462 C 62.210 36.714,62.875 33.125,62.098 31.636 C 61.970 31.390,61.812 30.951,61.748 30.660 C 61.624 30.095,60.682 27.972,60.493 27.833 C 60.431 27.787,60.255 27.506,60.102 27.207 C 59.948 26.908,59.598 26.346,59.323 25.957 C 59.048 25.568,58.696 25.063,58.541 24.833 C 57.531 23.340,54.102 20.143,53.125 19.784 C 52.965 19.725,52.833 19.606,52.833 19.518 C 52.833 19.431,52.552 19.269,52.208 19.159 C 51.865 19.048,51.471 18.864,51.333 18.749 C 51.009 18.479,50.368 18.405,48.857 18.466 M59.976 52.370 C 58.856 53.233,58.333 53.909,58.332 54.496 C 58.332 54.819,58.251 55.372,58.153 55.726 C 57.900 56.638,58.246 56.985,60.647 58.229 C 60.979 58.401,61.429 58.682,61.647 58.854 C 62.463 59.496,63.863 59.059,65.282 57.720 C 65.929 57.109,65.983 57.353,64.586 54.561 L 63.756 52.902 62.063 52.485 C 60.417 52.079,60.359 52.076,59.976 52.370 " stroke="none" fill="#1d0d2c" fill-rule="evenodd"></path></g></svg>